<svg xmlns="http://www.w3.org/2000/svg" width="752" height="32" viewBox="0 0 752 32">
  <svg id="icon-pointer" viewBox="0 0 45 32">
    <path d="M39.199 18.762c-.245-1.84-.404-3.482-.476-4.927-.031-1.468.025-2.739.167-3.812L3.182 30.639l-1.689-2.926L37.201 7.097c-1.027-.459-2.169-1.07-3.425-1.831-1.215-.785-2.545-1.72-3.989-2.806l2.144-1.238c4.53 1.905 8.673 2.857 12.429 2.856l.724 1.254c-1.906 3.206-3.153 7.27-3.741 12.192l-2.144 1.238z"/>
  </svg>
  <svg id="icon-close" viewBox="0 0 32 32">
    <path fill="none" stroke="#000" stroke-linecap="round" stroke-linejoin="round" stroke-width="2.1818" d="M24 8 8 24M8 8l16 16"/>
  </svg>
  <svg id="icon-facebook" viewBox="0 0 32 32">
    <path d="M19.52 4.64h.96v3.6h-1.2c-.48 0-.96 0-1.2.24s-.24.48-.24 1.04v1.28h2.64v3.04h-2.64v13.2h-4.08V13.76H11.6v-3.04h2.16V9.68c0-1.76.24-3.04.72-3.6.72-1.04 2.16-1.52 4.32-1.52.24.08.48.08.72.08z"/>
  </svg>
  <svg id="icon-instagram" viewBox="0 0 32 32">
    <path d="M28.717 10.756c-.016-1.074-.215-2.14-.596-3.145-.667-1.716-2.024-3.073-3.743-3.737-.994-.373-2.044-.573-3.108-.596-1.368-.061-1.801-.078-5.273-.078s-3.917 0-5.274.078c-1.062.023-2.112.223-3.106.596-1.719.664-3.078 2.021-3.743 3.737-.374.992-.576 2.041-.596 3.101-.061 1.367-.08 1.8-.08 5.265s0 3.909.08 5.265c.021 1.062.222 2.109.596 3.104.667 1.714 2.024 3.071 3.744 3.735.989.386 2.04.605 3.106.639 1.369.061 1.803.08 5.274.08s3.916 0 5.274-.08c1.062-.021 2.113-.221 3.108-.595 1.719-.666 3.076-2.022 3.743-3.737.374-.994.574-2.041.596-3.104.061-1.365.08-1.798.08-5.265-.003-3.466-.003-3.906-.082-5.264zM15.99 22.531c-3.631 0-6.572-2.936-6.572-6.561s2.941-6.561 6.572-6.561c3.628 0 6.572 2.936 6.572 6.561s-2.944 6.561-6.572 6.561zm6.833-11.835c-.849 0-1.532-.684-1.532-1.53s.684-1.53 1.532-1.53c.846 0 1.531.684 1.531 1.53s-.685 1.53-1.531 1.53z"/>
    <path d="M15.992 19.976c2.211 0 4.004-1.793 4.004-4.004s-1.793-4.004-4.004-4.004c-2.211 0-4.004 1.793-4.004 4.004s1.793 4.004 4.004 4.004z"/>
  </svg>
  <svg id="icon-navigation" viewBox="0 0 32 32">
    <path stroke-linecap="round" stroke-width="2.1818" d="M5.961 8.628H30.91M5.961 21.851H30.91M13.613 15.24h17.296"/>
  </svg>
  <svg id="icon-star" viewBox="0 0 32 32">
    <path d="M15.434.333c.251-.437.881-.437 1.133 0l1.84 3.203c.19.33.621.429.935.214l3.081-2.107c.418-.286.987-.008 1.02.496l.239 3.642c.025.383.374.662.754.602l3.69-.584c.504-.08.9.423.706.894l-1.386 3.36c-.148.359.048.767.421.876l3.555 1.036c.493.144.635.773.252 1.115l-2.731 2.433c-.291.26-.291.715 0 .975l2.731 2.433c.383.341.241.971-.252 1.115l-3.555 1.036c-.373.109-.569.517-.421.876l1.386 3.36c.194.471-.202.974-.706.894l-3.69-.584c-.38-.06-.729.219-.754.602l-.239 3.642c-.033.505-.603.782-1.02.496l-3.081-2.107c-.314-.215-.745-.116-.935.214l-1.84 3.203c-.251.437-.881.437-1.133 0l-1.84-3.203c-.19-.33-.621-.429-.935-.214l-3.081 2.107c-.418.286-.987.009-1.02-.496l-.239-3.642c-.025-.383-.374-.662-.754-.602l-3.69.584c-.504.08-.9-.423-.706-.894l1.386-3.36c.148-.359-.048-.767-.421-.876L.579 20.036c-.493-.144-.635-.773-.252-1.115l2.731-2.433c.291-.26.291-.715 0-.975L.327 13.08c-.383-.341-.241-.971.252-1.115l3.555-1.036c.373-.109.569-.517.421-.876l-1.386-3.36c-.194-.471.202-.974.706-.894l3.69.584c.38.06.729-.219.754-.602l.239-3.642c.033-.505.603-.782 1.02-.496l3.081 2.107c.314.215.745.116.935-.214l1.84-3.203z"/>
  </svg>
  <svg id="icon-youtube" viewBox="0 0 32 32">
    <path d="M24.24 6c-1.36-.08-4.16-.16-8.4-.16h-.56c-4.08 0-6.8.08-8.16.24-1.84.16-3.12.64-3.84 1.28-.64.56-1.12 1.6-1.28 2.96-.08.88-.16 2.72-.16 5.52v.4c0 2.64.08 4.48.24 5.36.24 1.28.64 2.24 1.44 2.8.8.64 2.16 1.04 4.08 1.2 1.36.08 4.16.16 8.4.16h.56c4.08 0 6.8-.08 8.16-.24 1.84-.16 3.12-.64 3.84-1.28.64-.56 1.12-1.6 1.28-2.96.08-.88.16-2.72.16-5.52v-.4c0-2.64-.08-4.48-.24-5.36-.24-1.28-.64-2.24-1.44-2.8-.8-.64-2.16-1.04-4.08-1.2zm-3.12 9.84-8.8 5.28V10.56l8.8 5.28z"/>
  </svg>
</svg>
