<svg xmlns="http://www.w3.org/2000/svg" width="752" height="32" viewBox="0 0 752 32">
  <svg id="icon-pointer" viewBox="0 0 45 32">
    <path d="M39.199 18.762c-.245-1.84-.404-3.482-.476-4.927-.031-1.468.025-2.739.167-3.812L3.182 30.639l-1.689-2.926L37.201 7.097c-1.027-.459-2.169-1.07-3.425-1.831-1.215-.785-2.545-1.72-3.989-2.806l2.144-1.238c4.53 1.905 8.673 2.857 12.429 2.856l.724 1.254c-1.906 3.206-3.153 7.27-3.741 12.192l-2.144 1.238z"/>
  </svg>
  <svg id="icon-logo" viewBox="0 0 36 32">
    <path fill="#ababab" d="M0 0h36.103v32H0z"/>
    <path fill="#2e2e2e" d="M-401.231-77.128H780.307v790.974H-401.231z"/>
    <path fill="#ecd979" d="M15.786 11.416H14.66v-1.142h1.126v1.142zM14.66 11.416h-1.126v-1.142h1.126v1.142zM9.03 11.416H7.904v-1.142H9.03v1.142zM7.904 11.416H6.778v-1.142h1.126v1.142z"/>
    <path fill="#ecd979" d="M6.778 11.416H5.652v-1.142h1.126v1.142zM29.298 10.274h-1.126V9.132h1.126v1.142z"/>
    <path fill="#ecd979" d="M28.172 10.274h-1.126V9.132h1.126v1.142zM20.29 10.274h-1.126V9.132h1.126v1.142z"/>
    <path fill="#ecd979" d="M19.164 10.274h-1.126V9.132h1.126v1.142zM16.912 10.274h-1.126V9.132h1.126v1.142zM15.786 10.274H14.66V9.132h1.126v1.142zM7.904 10.274H6.778V9.132h1.126v1.142z"/>
    <path fill="#ecd979" d="M6.778 10.274H5.652V9.132h1.126v1.142zM29.298 9.133h-1.126V7.991h1.126v1.142zM19.164 9.133h-1.126V7.991h1.126v1.142zM16.912 9.133h-1.126V7.991h1.126v1.142z"/>
    <path fill="#ecd979" d="M6.778 9.133H5.652V7.991h1.126v1.142zM34.928 7.991h-1.126V6.849h1.126v1.142zM1.148 7.991H.022V6.849h1.126v1.142zM34.928 6.849h-1.126V5.707h1.126v1.142zM33.802 6.849h-1.126V5.707h1.126v1.142zM23.668 6.849h-1.126V5.707h1.126v1.142z"/>
    <path fill="#ecd979" d="M22.542 6.849h-1.126V5.707h1.126v1.142zM21.416 6.849H20.29V5.707h1.126v1.142zM14.66 6.849h-1.126V5.707h1.126v1.142zM13.534 6.849h-1.126V5.707h1.126v1.142zM12.408 6.849h-1.126V5.707h1.126v1.142zM2.274 6.849H1.148V5.707h1.126v1.142zM1.148 6.849H.022V5.707h1.126v1.142zM34.928 5.708h-1.126V4.566h1.126v1.142zM33.802 5.708h-1.126V4.566h1.126v1.142zM32.676 5.708H31.55V4.566h1.126v1.142zM24.794 5.708h-1.126V4.566h1.126v1.142z"/>
    <path fill="#ecd979" d="M23.668 5.708h-1.126V4.566h1.126v1.142z"/>
    <path fill="#ecd979" d="M22.542 5.708h-1.126V4.566h1.126v1.142zM19.164 5.708h-1.126V4.566h1.126v1.142zM16.912 5.708h-1.126V4.566h1.126v1.142zM13.534 5.708h-1.126V4.566h1.126v1.142zM12.408 5.708h-1.126V4.566h1.126v1.142zM11.282 5.708h-1.126V4.566h1.126v1.142zM3.4 5.708H2.274V4.566H3.4v1.142zM2.274 5.708H1.148V4.566h1.126v1.142zM1.148 5.708H.022V4.566h1.126v1.142zM33.802 4.566h-1.126V3.424h1.126v1.142zM32.676 4.566H31.55V3.424h1.126v1.142zM31.55 4.566h-1.126V3.424h1.126v1.142zM25.92 4.566h-1.126V3.424h1.126v1.142zM24.794 4.566h-1.126V3.424h1.126v1.142zM23.668 4.566h-1.126V3.424h1.126v1.142zM20.29 4.566h-1.126V3.424h1.126v1.142z"/>
    <path fill="#ecd979" d="M19.164 4.566h-1.126V3.424h1.126v1.142zM16.912 4.566h-1.126V3.424h1.126v1.142zM15.786 4.566H14.66V3.424h1.126v1.142zM12.408 4.566h-1.126V3.424h1.126v1.142zM11.282 4.566h-1.126V3.424h1.126v1.142zM10.156 4.566H9.03V3.424h1.126v1.142zM4.526 4.566H3.4V3.424h1.126v1.142zM3.4 4.566H2.274V3.424H3.4v1.142zM2.274 4.566H1.148V3.424h1.126v1.142zM32.676 3.425H31.55V2.283h1.126v1.142zM31.55 3.425h-1.126V2.283h1.126v1.142zM30.424 3.425h-1.126V2.283h1.126v1.142zM21.416 3.425H20.29V2.283h1.126v1.142z"/>
    <path fill="#ecd979" d="M20.29 3.425h-1.126V2.283h1.126v1.142z"/>
    <path fill="#ecd979" d="M19.164 3.425h-1.126V2.283h1.126v1.142zM16.912 3.425h-1.126V2.283h1.126v1.142zM15.786 3.425H14.66V2.283h1.126v1.142zM14.66 3.425h-1.126V2.283h1.126v1.142zM5.652 3.425H4.526V2.283h1.126v1.142zM4.526 3.425H3.4V2.283h1.126v1.142zM3.4 3.425H2.274V2.283H3.4v1.142zM36.054 2.283h-1.126V1.141h1.126v1.142zM31.55 2.283h-1.126V1.141h1.126v1.142zM30.424 2.283h-1.126V1.141h1.126v1.142zM29.298 2.283h-1.126V1.141h1.126v1.142zM21.416 2.283H20.29V1.141h1.126v1.142zM20.29 2.283h-1.126V1.141h1.126v1.142zM15.786 2.283H14.66V1.141h1.126v1.142zM14.66 2.283h-1.126V1.141h1.126v1.142zM6.778 2.283H5.652V1.141h1.126v1.142zM5.652 2.283H4.526V1.141h1.126v1.142zM4.526 2.283H3.4V1.141h1.126v1.142z"/>
    <path fill="#ecd979" d="M36.054 1.142h-1.126V0h1.126v1.142zM34.928 1.142h-1.126V0h1.126v1.142zM30.424 1.142h-1.126V0h1.126v1.142zM29.298 1.142h-1.126V0h1.126v1.142z"/>
    <path fill="#ecd979" d="M28.172 1.142h-1.126V0h1.126v1.142zM21.416 1.142H20.29V0h1.126v1.142zM14.66 1.142h-1.126V0h1.126v1.142zM7.904 1.142H6.778V0h1.126v1.142z"/>
    <path fill="#ecd979" d="M6.778 1.142H5.652V0h1.126v1.142zM5.652 1.142H4.526V0h1.126v1.142zM1.148 1.142H.022V0h1.126v1.142z"/>
  </svg>
  <svg id="icon-close" viewBox="0 0 32 32">
    <path fill="none" stroke="#000" stroke-linecap="round" stroke-linejoin="round" stroke-width="2.1818" d="M24 8 8 24M8 8l16 16"/>
  </svg>
  <svg id="icon-facebook" viewBox="0 0 32 32">
    <path d="M19.52 4.64h.96v3.6h-1.2c-.48 0-.96 0-1.2.24s-.24.48-.24 1.04v1.28h2.64v3.04h-2.64v13.2h-4.08V13.76H11.6v-3.04h2.16V9.68c0-1.76.24-3.04.72-3.6.72-1.04 2.16-1.52 4.32-1.52.24.08.48.08.72.08z"/>
  </svg>
  <svg id="icon-instagram" viewBox="0 0 32 32">
    <path d="M28.717 10.756c-.016-1.074-.215-2.14-.596-3.145-.667-1.716-2.024-3.073-3.743-3.737-.994-.373-2.044-.573-3.108-.596-1.368-.061-1.801-.078-5.273-.078s-3.917 0-5.274.078c-1.062.023-2.112.223-3.106.596-1.719.664-3.078 2.021-3.743 3.737-.374.992-.576 2.041-.596 3.101-.061 1.367-.08 1.8-.08 5.265s0 3.909.08 5.265c.021 1.062.222 2.109.596 3.104.667 1.714 2.024 3.071 3.744 3.735.989.386 2.04.605 3.106.639 1.369.061 1.803.08 5.274.08s3.916 0 5.274-.08c1.062-.021 2.113-.221 3.108-.595 1.719-.666 3.076-2.022 3.743-3.737.374-.994.574-2.041.596-3.104.061-1.365.08-1.798.08-5.265-.003-3.466-.003-3.906-.082-5.264zM15.99 22.531c-3.631 0-6.572-2.936-6.572-6.561s2.941-6.561 6.572-6.561c3.628 0 6.572 2.936 6.572 6.561s-2.944 6.561-6.572 6.561zm6.833-11.835c-.849 0-1.532-.684-1.532-1.53s.684-1.53 1.532-1.53c.846 0 1.531.684 1.531 1.53s-.685 1.53-1.531 1.53z"/>
    <path d="M15.992 19.976c2.211 0 4.004-1.793 4.004-4.004s-1.793-4.004-4.004-4.004c-2.211 0-4.004 1.793-4.004 4.004s1.793 4.004 4.004 4.004z"/>
  </svg>
  <svg id="icon-navigation" viewBox="0 0 32 32">
    <path stroke-linecap="round" stroke-width="2.1818" d="M5.961 8.628H30.91M5.961 21.851H30.91M13.613 15.24h17.296"/>
  </svg>
  <svg id="icon-star" viewBox="0 0 32 32">
    <path d="M15.434.333c.251-.437.881-.437 1.133 0l1.84 3.203c.19.33.621.429.935.214l3.081-2.107c.418-.286.987-.008 1.02.496l.239 3.642c.025.383.374.662.754.602l3.69-.584c.504-.08.9.423.706.894l-1.386 3.36c-.148.359.048.767.421.876l3.555 1.036c.493.144.635.773.252 1.115l-2.731 2.433c-.291.26-.291.715 0 .975l2.731 2.433c.383.341.241.971-.252 1.115l-3.555 1.036c-.373.109-.569.517-.421.876l1.386 3.36c.194.471-.202.974-.706.894l-3.69-.584c-.38-.06-.729.219-.754.602l-.239 3.642c-.033.505-.603.782-1.02.496l-3.081-2.107c-.314-.215-.745-.116-.935.214l-1.84 3.203c-.251.437-.881.437-1.133 0l-1.84-3.203c-.19-.33-.621-.429-.935-.214l-3.081 2.107c-.418.286-.987.009-1.02-.496l-.239-3.642c-.025-.383-.374-.662-.754-.602l-3.69.584c-.504.08-.9-.423-.706-.894l1.386-3.36c.148-.359-.048-.767-.421-.876L.579 20.036c-.493-.144-.635-.773-.252-1.115l2.731-2.433c.291-.26.291-.715 0-.975L.327 13.08c-.383-.341-.241-.971.252-1.115l3.555-1.036c.373-.109.569-.517.421-.876l-1.386-3.36c-.194-.471.202-.974.706-.894l3.69.584c.38.06.729-.219.754-.602l.239-3.642c.033-.505.603-.782 1.02-.496l3.081 2.107c.314.215.745.116.935-.214l1.84-3.203z"/>
  </svg>
  <svg id="icon-youtube" viewBox="0 0 32 32">
    <path d="M24.24 6c-1.36-.08-4.16-.16-8.4-.16h-.56c-4.08 0-6.8.08-8.16.24-1.84.16-3.12.64-3.84 1.28-.64.56-1.12 1.6-1.28 2.96-.08.88-.16 2.72-.16 5.52v.4c0 2.64.08 4.48.24 5.36.24 1.28.64 2.24 1.44 2.8.8.64 2.16 1.04 4.08 1.2 1.36.08 4.16.16 8.4.16h.56c4.08 0 6.8-.08 8.16-.24 1.84-.16 3.12-.64 3.84-1.28.64-.56 1.12-1.6 1.28-2.96.08-.88.16-2.72.16-5.52v-.4c0-2.64-.08-4.48-.24-5.36-.24-1.28-.64-2.24-1.44-2.8-.8-.64-2.16-1.04-4.08-1.2zm-3.12 9.84-8.8 5.28V10.56l8.8 5.28z"/>
  </svg>
</svg>
