<svg xmlns="http://www.w3.org/2000/svg" width="44" height="39" fill="none" viewBox="0 0 44 39">
  <path fill="#ABABAB" d="M0 0h44v39H0z"/>
  <g id="Ui Kit">
    <path fill="#2E2E2E" d="M-489-94H951v964H-489z"/>
    <g id="logo" clip-path="url(#clip0_0_1)">
      <g id="g8" fill="#ECD979">
        <path id="path170" d="M43.9409 38.9565h-1.3723v-1.3913h1.3723v1.3913Z"/>
        <path id="path172" d="M42.5686 38.9565h-1.3723v-1.3913h1.3723v1.3913Z"/>
        <path id="path174" d="M37.0794 38.9565H35.707v-1.3913h1.3724v1.3913Z"/>
        <path id="path176" d="M35.707 38.9565h-1.3723v-1.3913h1.3723v1.3913Z"/>
        <path id="path178" d="M34.3347 38.9565h-1.3723v-1.3913h1.3723v1.3913Z"/>
        <path id="path180" d="M26.1008 38.9565h-1.3723v-1.3913h1.3723v1.3913Z"/>
        <path id="path182" d="M17.8672 38.9565h-1.3723v-1.3913h1.3723v1.3913Z"/>
        <path id="path184" d="M9.63331 38.9565H8.26099v-1.3913h1.37232v1.3913Z"/>
        <path id="path186" d="M8.26099 38.9565H6.88867v-1.3913h1.37232v1.3913Z"/>
        <path id="path188" d="M6.88868 38.9565H5.51636v-1.3913h1.37232v1.3913Z"/>
        <path id="path190" d="M1.39942 38.9565H.0270996v-1.3913H1.39942v1.3913Z"/>
        <path id="path192" d="M43.9409 37.5652h-1.3723v-1.3913h1.3723v1.3913Z"/>
        <path id="path194" d="M38.4517 37.5652h-1.3724v-1.3913h1.3724v1.3913Z"/>
        <path id="path196" d="M37.0794 37.5652H35.707v-1.3913h1.3724v1.3913Z"/>
        <path id="path198" d="M35.707 37.5652h-1.3723v-1.3913h1.3723v1.3913Z"/>
        <path id="path200" d="M26.1008 37.5652h-1.3723v-1.3913h1.3723v1.3913Z"/>
        <path id="path202" d="M24.7285 37.5652h-1.3723v-1.3913h1.3723v1.3913Z"/>
        <path id="path204" d="M19.2395 37.5652h-1.3723v-1.3913h1.3723v1.3913Z"/>
        <path id="path206" d="M17.8672 37.5652h-1.3723v-1.3913h1.3723v1.3913Z"/>
        <path id="path208" d="M8.26099 37.5652H6.88867v-1.3913h1.37232v1.3913Z"/>
        <path id="path210" d="M6.88868 37.5652H5.51636v-1.3913h1.37232v1.3913Z"/>
        <path id="path212" d="M5.51636 37.5652H4.14404v-1.3913h1.37232v1.3913Z"/>
        <path id="path214" d="M39.824 36.1739h-1.3723v-1.3913h1.3723v1.3913Z"/>
        <path id="path216" d="M38.4517 36.1739h-1.3724v-1.3913h1.3724v1.3913Z"/>
        <path id="path218" d="M37.0794 36.1739H35.707v-1.3913h1.3724v1.3913Z"/>
        <path id="path220" d="M26.1008 36.1739h-1.3723v-1.3913h1.3723v1.3913Z"/>
        <path id="path222" d="M24.7285 36.1739h-1.3723v-1.3913h1.3723v1.3913Z"/>
        <path id="path224" d="M23.3562 36.1739h-1.3723v-1.3913h1.3723v1.3913Z"/>
        <path id="path226" d="M20.6118 36.1739h-1.3723v-1.3913h1.3723v1.3913Z"/>
        <path id="path228" d="M19.2395 36.1739h-1.3723v-1.3913h1.3723v1.3913Z"/>
        <path id="path230" d="M17.8672 36.1739h-1.3723v-1.3913h1.3723v1.3913Z"/>
        <path id="path232" d="M6.88868 36.1739H5.51636v-1.3913h1.37232v1.3913Z"/>
        <path id="path234" d="M5.51636 36.1739H4.14404v-1.3913h1.37232v1.3913Z"/>
        <path id="path236" d="M4.14405 36.1739H2.77173v-1.3913h1.37232v1.3913Z"/>
        <path id="path238" d="M41.1963 34.7826H39.824v-1.3913h1.3723v1.3913Z"/>
        <path id="path240" d="M39.824 34.7826h-1.3723v-1.3913h1.3723v1.3913Z"/>
        <path id="path242" d="M38.4517 34.7826h-1.3724v-1.3913h1.3724v1.3913Z"/>
        <path id="path244" d="M31.5901 34.7826h-1.3723v-1.3913h1.3723v1.3913Z"/>
        <path id="path246" d="M30.2178 34.7826h-1.3723v-1.3913h1.3723v1.3913Z"/>
        <path id="path248" d="M28.8455 34.7826h-1.3724v-1.3913h1.3724v1.3913Z"/>
        <path id="path250" d="M24.7285 34.7826h-1.3723v-1.3913h1.3723v1.3913Z"/>
        <path id="path252" d="M23.3562 34.7826h-1.3723v-1.3913h1.3723v1.3913Z"/>
        <path id="path254" d="M20.6118 34.7826h-1.3723v-1.3913h1.3723v1.3913Z"/>
        <path id="path256" d="M19.2395 34.7826h-1.3723v-1.3913h1.3723v1.3913Z"/>
        <path id="path258" d="M15.1226 34.7826h-1.3724v-1.3913h1.3724v1.3913Z"/>
        <path id="path260" d="M13.7502 34.7826h-1.3723v-1.3913h1.3723v1.3913Z"/>
        <path id="path262" d="M12.3779 34.7826h-1.3723v-1.3913h1.3723v1.3913Z"/>
        <path id="path264" d="M5.51636 34.7826H4.14404v-1.3913h1.37232v1.3913Z"/>
        <path id="path266" d="M4.14405 34.7826H2.77173v-1.3913h1.37232v1.3913Z"/>
        <path id="path268" d="M2.77173 34.7826H1.39941v-1.3913h1.37232v1.3913Z"/>
        <path id="path270" d="M42.5686 33.3913h-1.3723V32h1.3723v1.3913Z"/>
        <path id="path272" d="M41.1963 33.3913H39.824V32h1.3723v1.3913Z"/>
        <path id="path274" d="M39.824 33.3913h-1.3723V32h1.3723v1.3913Z"/>
        <path id="path276" d="M30.2178 33.3913h-1.3723V32h1.3723v1.3913Z"/>
        <path id="path278" d="M28.8455 33.3913h-1.3724V32h1.3724v1.3913Z"/>
        <path id="path280" d="M27.4731 33.3913h-1.3723V32h1.3723v1.3913Z"/>
        <path id="path282" d="M23.3562 33.3913h-1.3723V32h1.3723v1.3913Z"/>
        <path id="path284" d="M20.6118 33.3913h-1.3723V32h1.3723v1.3913Z"/>
        <path id="path286" d="M16.4949 33.3913h-1.3723V32h1.3723v1.3913Z"/>
        <path id="path288" d="M15.1226 33.3913h-1.3724V32h1.3724v1.3913Z"/>
        <path id="path290" d="M13.7502 33.3913h-1.3723V32h1.3723v1.3913Z"/>
        <path id="path292" d="M4.14405 33.3913H2.77173V32h1.37232v1.3913Z"/>
        <path id="path294" d="M2.77173 33.3913H1.39941V32h1.37232v1.3913Z"/>
        <path id="path296" d="M1.39942 33.3913H.0270996V32H1.39942v1.3913Z"/>
        <path id="path298" d="M42.5686 32h-1.3723v-1.3913h1.3723V32Z"/>
        <path id="path300" d="M41.1963 32H39.824v-1.3913h1.3723V32Z"/>
        <path id="path302" d="M28.8455 32h-1.3724v-1.3913h1.3724V32Z"/>
        <path id="path304" d="M27.4731 32h-1.3723v-1.3913h1.3723V32Z"/>
        <path id="path306" d="M26.1008 32h-1.3723v-1.3913h1.3723V32Z"/>
        <path id="path308" d="M17.8672 32h-1.3723v-1.3913h1.3723V32Z"/>
        <path id="path310" d="M16.4949 32h-1.3723v-1.3913h1.3723V32Z"/>
        <path id="path312" d="M15.1226 32h-1.3724v-1.3913h1.3724V32Z"/>
        <path id="path314" d="M2.77173 32H1.39941v-1.3913h1.37232V32Z"/>
        <path id="path316" d="M1.39942 32H.0270996v-1.3913H1.39942V32Z"/>
        <path id="path318" d="M42.5686 30.6087h-1.3723v-1.3913h1.3723v1.3913Z"/>
        <path id="path320" d="M35.707 30.6087h-1.3723v-1.3913h1.3723v1.3913Z"/>
        <path id="path322" d="M23.3562 30.6087h-1.3723v-1.3913h1.3723v1.3913Z"/>
        <path id="path324" d="M20.6118 30.6087h-1.3723v-1.3913h1.3723v1.3913Z"/>
        <path id="path326" d="M8.26099 30.6087H6.88867v-1.3913h1.37232v1.3913Z"/>
        <path id="path328" d="M1.39942 30.6087H.0270996v-1.3913H1.39942v1.3913Z"/>
        <path id="path330" d="M35.707 29.2174h-1.3723v-1.3913h1.3723v1.3913Z"/>
        <path id="path332" d="M34.3347 29.2174h-1.3723v-1.3913h1.3723v1.3913Z"/>
        <path id="path334" d="M24.7285 29.2174h-1.3723v-1.3913h1.3723v1.3913Z"/>
        <path id="path336" d="M23.3562 29.2174h-1.3723v-1.3913h1.3723v1.3913Z"/>
        <path id="path338" d="M20.6118 29.2174h-1.3723v-1.3913h1.3723v1.3913Z"/>
        <path id="path340" d="M19.2395 29.2174h-1.3723v-1.3913h1.3723v1.3913Z"/>
        <path id="path342" d="M9.63331 29.2174H8.26099v-1.3913h1.37232v1.3913Z"/>
        <path id="path344" d="M8.26099 29.2174H6.88867v-1.3913h1.37232v1.3913Z"/>
        <path id="path346" d="M35.707 27.8261h-1.3723v-1.3913h1.3723v1.3913Z"/>
        <path id="path348" d="M34.3347 27.8261h-1.3723v-1.3913h1.3723v1.3913Z"/>
        <path id="path350" d="M32.9624 27.8261h-1.3723v-1.3913h1.3723v1.3913Z"/>
        <path id="path352" d="M26.1008 27.8261h-1.3723v-1.3913h1.3723v1.3913Z"/>
        <path id="path354" d="M24.7285 27.8261h-1.3723v-1.3913h1.3723v1.3913Z"/>
        <path id="path356" d="M19.2395 27.8261h-1.3723v-1.3913h1.3723v1.3913Z"/>
        <path id="path358" d="M17.8672 27.8261h-1.3723v-1.3913h1.3723v1.3913Z"/>
        <path id="path360" d="M11.0056 27.8261H9.6333v-1.3913h1.3723v1.3913Z"/>
        <path id="path362" d="M9.63331 27.8261H8.26099v-1.3913h1.37232v1.3913Z"/>
        <path id="path364" d="M8.26099 27.8261H6.88867v-1.3913h1.37232v1.3913Z"/>
        <path id="path366" d="M34.3347 26.4348h-1.3723v-1.3913h1.3723v1.3913Z"/>
        <path id="path368" d="M32.9624 26.4348h-1.3723v-1.3913h1.3723v1.3913Z"/>
        <path id="path370" d="M27.4731 26.4348h-1.3723v-1.3913h1.3723v1.3913Z"/>
        <path id="path372" d="M26.1008 26.4348h-1.3723v-1.3913h1.3723v1.3913Z"/>
        <path id="path374" d="M17.8672 26.4348h-1.3723v-1.3913h1.3723v1.3913Z"/>
        <path id="path376" d="M16.4949 26.4348h-1.3723v-1.3913h1.3723v1.3913Z"/>
        <path id="path378" d="M11.0056 26.4348H9.6333v-1.3913h1.3723v1.3913Z"/>
        <path id="path380" d="M9.63331 26.4348H8.26099v-1.3913h1.37232v1.3913Z"/>
        <path id="path382" d="M39.824 25.0435h-1.3723v-1.3913h1.3723v1.3913Z"/>
        <path id="path384" d="M38.4517 25.0435h-1.3724v-1.3913h1.3724v1.3913Z"/>
        <path id="path386" d="M37.0794 25.0435H35.707v-1.3913h1.3724v1.3913Z"/>
        <path id="path388" d="M32.9624 25.0435h-1.3723v-1.3913h1.3723v1.3913Z"/>
        <path id="path390" d="M28.8455 25.0435h-1.3724v-1.3913h1.3724v1.3913Z"/>
        <path id="path392" d="M27.4731 25.0435h-1.3723v-1.3913h1.3723v1.3913Z"/>
        <path id="path394" d="M16.4949 25.0435h-1.3723v-1.3913h1.3723v1.3913Z"/>
        <path id="path396" d="M15.1226 25.0435h-1.3724v-1.3913h1.3724v1.3913Z"/>
        <path id="path398" d="M11.0056 25.0435H9.6333v-1.3913h1.3723v1.3913Z"/>
        <path id="path400" d="M6.88868 25.0435H5.51636v-1.3913h1.37232v1.3913Z"/>
        <path id="path402" d="M5.51636 25.0435H4.14404v-1.3913h1.37232v1.3913Z"/>
        <path id="path404" d="M4.14405 25.0435H2.77173v-1.3913h1.37232v1.3913Z"/>
        <path id="path406" d="M43.9409 23.6522h-1.3723v-1.3913h1.3723v1.3913Z"/>
        <path id="path408" d="M38.4517 23.6522h-1.3724v-1.3913h1.3724v1.3913Z"/>
        <path id="path410" d="M37.0794 23.6522H35.707v-1.3913h1.3724v1.3913Z"/>
        <path id="path412" d="M35.707 23.6522h-1.3723v-1.3913h1.3723v1.3913Z"/>
        <path id="path414" d="M30.2178 23.6522h-1.3723v-1.3913h1.3723v1.3913Z"/>
        <path id="path416" d="M28.8455 23.6522h-1.3724v-1.3913h1.3724v1.3913Z"/>
        <path id="path418" d="M15.1226 23.6522h-1.3724v-1.3913h1.3724v1.3913Z"/>
        <path id="path420" d="M13.7502 23.6522h-1.3723v-1.3913h1.3723v1.3913Z"/>
        <path id="path422" d="M8.26099 23.6522H6.88867v-1.3913h1.37232v1.3913Z"/>
        <path id="path424" d="M6.88868 23.6522H5.51636v-1.3913h1.37232v1.3913Z"/>
        <path id="path426" d="M5.51636 23.6522H4.14404v-1.3913h1.37232v1.3913Z"/>
        <path id="path428" d="M43.9409 22.2609h-1.3723v-1.3913h1.3723v1.3913Z"/>
        <path id="path430" d="M42.5686 22.2609h-1.3723v-1.3913h1.3723v1.3913Z"/>
        <path id="path432" d="M37.0794 22.2609H35.707v-1.3913h1.3724v1.3913Z"/>
        <path id="path434" d="M35.707 22.2609h-1.3723v-1.3913h1.3723v1.3913Z"/>
        <path id="path436" d="M34.3347 22.2609h-1.3723v-1.3913h1.3723v1.3913Z"/>
        <path id="path438" d="M31.5901 22.2609h-1.3723v-1.3913h1.3723v1.3913Z"/>
        <path id="path440" d="M30.2178 22.2609h-1.3723v-1.3913h1.3723v1.3913Z"/>
        <path id="path442" d="M21.9841 22.2609h-1.3723v-1.3913h1.3723v1.3913Z"/>
        <path id="path444" d="M13.7502 22.2609h-1.3723v-1.3913h1.3723v1.3913Z"/>
        <path id="path446" d="M12.3779 22.2609h-1.3723v-1.3913h1.3723v1.3913Z"/>
        <path id="path448" d="M9.63331 22.2609H8.26099v-1.3913h1.37232v1.3913Z"/>
        <path id="path450" d="M8.26099 22.2609H6.88867v-1.3913h1.37232v1.3913Z"/>
        <path id="path452" d="M6.88868 22.2609H5.51636v-1.3913h1.37232v1.3913Z"/>
        <path id="path454" d="M1.37232 20.8696H0v-1.3913h1.37232v1.3913Z"/>
        <path id="path456" d="M2.77173 20.8696H1.39941v-1.3913h1.37232v1.3913Z"/>
        <path id="path458" d="M1.37232 22.2609H0v-1.3913h1.37232v1.3913Z"/>
        <path id="path460" d="M1.37232 19.4783H0V18.087h1.37232v1.3913Z"/>
        <path id="path462" d="M43.9409 20.8696h-1.3723v-1.3913h1.3723v1.3913Z"/>
        <path id="path464" d="M42.5686 20.8696h-1.3723v-1.3913h1.3723v1.3913Z"/>
        <path id="path466" d="M41.1963 20.8696H39.824v-1.3913h1.3723v1.3913Z"/>
        <path id="path468" d="M23.3562 20.8696h-1.3723v-1.3913h1.3723v1.3913Z"/>
        <path id="path470" d="M21.9841 20.8696h-1.3723v-1.3913h1.3723v1.3913Z"/>
        <path id="path472" d="M20.6118 20.8696h-1.3723v-1.3913h1.3723v1.3913Z"/>
        <path id="path474" d="M43.9409 19.4783h-1.3723V18.087h1.3723v1.3913Z"/>
        <path id="path476" d="M42.5686 19.4783h-1.3723V18.087h1.3723v1.3913Z"/>
        <path id="path478" d="M37.0794 19.4783H35.707V18.087h1.3724v1.3913Z"/>
        <path id="path480" d="M35.707 19.4783h-1.3723V18.087h1.3723v1.3913Z"/>
        <path id="path482" d="M34.3347 19.4783h-1.3723V18.087h1.3723v1.3913Z"/>
        <path id="path484" d="M31.5901 19.4783h-1.3723V18.087h1.3723v1.3913Z"/>
        <path id="path486" d="M30.2178 19.4783h-1.3723V18.087h1.3723v1.3913Z"/>
        <path id="path488" d="M21.9841 19.4783h-1.3723V18.087h1.3723v1.3913Z"/>
        <path id="path490" d="M13.7502 19.4783h-1.3723V18.087h1.3723v1.3913Z"/>
        <path id="path492" d="M12.3779 19.4783h-1.3723V18.087h1.3723v1.3913Z"/>
        <path id="path494" d="M9.63331 19.4783H8.26099V18.087h1.37232v1.3913Z"/>
        <path id="path496" d="M8.26099 19.4783H6.88867V18.087h1.37232v1.3913Z"/>
        <path id="path498" d="M6.88868 19.4783H5.51636V18.087h1.37232v1.3913Z"/>
        <path id="path500" d="M43.9409 18.0869h-1.3723v-1.3913h1.3723v1.3913Z"/>
        <path id="path502" d="M38.4517 18.0869h-1.3724v-1.3913h1.3724v1.3913Z"/>
        <path id="path504" d="M37.0794 18.0869H35.707v-1.3913h1.3724v1.3913Z"/>
        <path id="path506" d="M35.707 18.0869h-1.3723v-1.3913h1.3723v1.3913Z"/>
        <path id="path508" d="M30.2178 18.0869h-1.3723v-1.3913h1.3723v1.3913Z"/>
        <path id="path510" d="M28.8455 18.0869h-1.3724v-1.3913h1.3724v1.3913Z"/>
        <path id="path512" d="M15.1226 18.0869h-1.3724v-1.3913h1.3724v1.3913Z"/>
        <path id="path514" d="M13.7502 18.0869h-1.3723v-1.3913h1.3723v1.3913Z"/>
        <path id="path516" d="M8.26099 18.0869H6.88867v-1.3913h1.37232v1.3913Z"/>
        <path id="path518" d="M6.88868 18.0869H5.51636v-1.3913h1.37232v1.3913Z"/>
        <path id="path520" d="M5.51636 18.0869H4.14404v-1.3913h1.37232v1.3913Z"/>
        <path id="path522" d="M39.824 16.6956h-1.3723v-1.3913h1.3723v1.3913Z"/>
        <path id="path524" d="M38.4517 16.6956h-1.3724v-1.3913h1.3724v1.3913Z"/>
        <path id="path526" d="M37.0794 16.6956H35.707v-1.3913h1.3724v1.3913Z"/>
        <path id="path528" d="M32.9624 16.6956h-1.3723v-1.3913h1.3723v1.3913Z"/>
        <path id="path530" d="M28.8455 16.6956h-1.3724v-1.3913h1.3724v1.3913Z"/>
        <path id="path532" d="M27.4731 16.6956h-1.3723v-1.3913h1.3723v1.3913Z"/>
        <path id="path534" d="M16.4949 16.6956h-1.3723v-1.3913h1.3723v1.3913Z"/>
        <path id="path536" d="M15.1226 16.6956h-1.3724v-1.3913h1.3724v1.3913Z"/>
        <path id="path538" d="M11.0056 16.6956H9.6333v-1.3913h1.3723v1.3913Z"/>
        <path id="path540" d="M6.88868 16.6956H5.51636v-1.3913h1.37232v1.3913Z"/>
        <path id="path542" d="M5.51636 16.6956H4.14404v-1.3913h1.37232v1.3913Z"/>
        <path id="path544" d="M4.14405 16.6956H2.77173v-1.3913h1.37232v1.3913Z"/>
        <path id="path546" d="M34.3347 15.3044h-1.3723V13.913h1.3723v1.3914Z"/>
        <path id="path548" d="M32.9624 15.3044h-1.3723V13.913h1.3723v1.3914Z"/>
        <path id="path550" d="M27.4731 15.3044h-1.3723V13.913h1.3723v1.3914Z"/>
        <path id="path552" d="M26.1008 15.3044h-1.3723V13.913h1.3723v1.3914Z"/>
        <path id="path554" d="M17.8672 15.3044h-1.3723V13.913h1.3723v1.3914Z"/>
        <path id="path556" d="M16.4949 15.3044h-1.3723V13.913h1.3723v1.3914Z"/>
        <path id="path558" d="M11.0056 15.3044H9.6333V13.913h1.3723v1.3914Z"/>
        <path id="path560" d="M9.63331 15.3044H8.26099V13.913h1.37232v1.3914Z"/>
        <path id="path562" d="M35.707 13.913h-1.3723v-1.3913h1.3723v1.3913Z"/>
        <path id="path564" d="M34.3347 13.913h-1.3723v-1.3913h1.3723v1.3913Z"/>
        <path id="path566" d="M32.9624 13.913h-1.3723v-1.3913h1.3723v1.3913Z"/>
        <path id="path568" d="M26.1008 13.913h-1.3723v-1.3913h1.3723v1.3913Z"/>
        <path id="path570" d="M24.7285 13.913h-1.3723v-1.3913h1.3723v1.3913Z"/>
        <path id="path572" d="M19.2395 13.913h-1.3723v-1.3913h1.3723v1.3913Z"/>
        <path id="path574" d="M17.8672 13.913h-1.3723v-1.3913h1.3723v1.3913Z"/>
        <path id="path576" d="M11.0056 13.913H9.6333v-1.3913h1.3723v1.3913Z"/>
        <path id="path578" d="M9.63331 13.913H8.26099v-1.3913h1.37232v1.3913Z"/>
        <path id="path580" d="M8.26099 13.913H6.88867v-1.3913h1.37232v1.3913Z"/>
        <path id="path582" d="M35.707 12.5217h-1.3723v-1.3913h1.3723v1.3913Z"/>
        <path id="path584" d="M34.3347 12.5217h-1.3723v-1.3913h1.3723v1.3913Z"/>
        <path id="path586" d="M24.7285 12.5217h-1.3723v-1.3913h1.3723v1.3913Z"/>
        <path id="path588" d="M23.3562 12.5217h-1.3723v-1.3913h1.3723v1.3913Z"/>
        <path id="path590" d="M20.6118 12.5217h-1.3723v-1.3913h1.3723v1.3913Z"/>
        <path id="path592" d="M19.2395 12.5217h-1.3723v-1.3913h1.3723v1.3913Z"/>
        <path id="path594" d="M9.63331 12.5217H8.26099v-1.3913h1.37232v1.3913Z"/>
        <path id="path596" d="M8.26099 12.5217H6.88867v-1.3913h1.37232v1.3913Z"/>
        <path id="path598" d="M35.707 11.1304h-1.3723V9.73913h1.3723v1.39127Z"/>
        <path id="path600" d="M23.3562 11.1304h-1.3723V9.73913h1.3723v1.39127Z"/>
        <path id="path602" d="M20.6118 11.1304h-1.3723V9.73913h1.3723v1.39127Z"/>
        <path id="path604" d="M8.26099 11.1304H6.88867V9.73913h1.37232v1.39127Z"/>
        <path id="path606" d="M42.5686 9.73911h-1.3723V8.3478h1.3723v1.39131Z"/>
        <path id="path608" d="M1.39942 9.73911H.0270996V8.3478H1.39942v1.39131Z"/>
        <path id="path610" d="M42.5686 8.34781h-1.3723V6.9565h1.3723v1.39131Z"/>
        <path id="path612" d="M41.1963 8.34781H39.824V6.9565h1.3723v1.39131Z"/>
        <path id="path614" d="M28.8455 8.34781h-1.3724V6.9565h1.3724v1.39131Z"/>
        <path id="path616" d="M27.4731 8.34781h-1.3723V6.9565h1.3723v1.39131Z"/>
        <path id="path618" d="M26.1008 8.34781h-1.3723V6.9565h1.3723v1.39131Z"/>
        <path id="path620" d="M17.8672 8.34781h-1.3723V6.9565h1.3723v1.39131Z"/>
        <path id="path622" d="M16.4949 8.34781h-1.3723V6.9565h1.3723v1.39131Z"/>
        <path id="path624" d="M15.1226 8.34781h-1.3724V6.9565h1.3724v1.39131Z"/>
        <path id="path626" d="M2.77173 8.34781H1.39941V6.9565h1.37232v1.39131Z"/>
        <path id="path628" d="M1.39942 8.34781H.0270996V6.9565H1.39942v1.39131Z"/>
        <path id="path630" d="M42.5686 6.95651h-1.3723v-1.3913h1.3723v1.3913Z"/>
        <path id="path632" d="M41.1963 6.95651H39.824v-1.3913h1.3723v1.3913Z"/>
        <path id="path634" d="M39.824 6.95651h-1.3723v-1.3913h1.3723v1.3913Z"/>
        <path id="path636" d="M30.2178 6.95651h-1.3723v-1.3913h1.3723v1.3913Z"/>
        <path id="path638" d="M28.8455 6.95651h-1.3724v-1.3913h1.3724v1.3913Z"/>
        <path id="path640" d="M27.4731 6.95651h-1.3723v-1.3913h1.3723v1.3913Z"/>
        <path id="path642" d="M23.3562 6.95651h-1.3723v-1.3913h1.3723v1.3913Z"/>
        <path id="path644" d="M20.6118 6.95651h-1.3723v-1.3913h1.3723v1.3913Z"/>
        <path id="path646" d="M16.4949 6.95651h-1.3723v-1.3913h1.3723v1.3913Z"/>
        <path id="path648" d="M15.1226 6.95651h-1.3724v-1.3913h1.3724v1.3913Z"/>
        <path id="path650" d="M13.7502 6.95651h-1.3723v-1.3913h1.3723v1.3913Z"/>
        <path id="path652" d="M4.14405 6.95651H2.77173v-1.3913h1.37232v1.3913Z"/>
        <path id="path654" d="M2.77173 6.95651H1.39941v-1.3913h1.37232v1.3913Z"/>
        <path id="path656" d="M1.39942 6.95651H.0270996v-1.3913H1.39942v1.3913Z"/>
        <path id="path658" d="M41.1963 5.56522H39.824V4.17391h1.3723v1.39131Z"/>
        <path id="path660" d="M39.824 5.56522h-1.3723V4.17391h1.3723v1.39131Z"/>
        <path id="path662" d="M38.4517 5.56522h-1.3724V4.17391h1.3724v1.39131Z"/>
        <path id="path664" d="M31.5901 5.56522h-1.3723V4.17391h1.3723v1.39131Z"/>
        <path id="path666" d="M30.2178 5.56522h-1.3723V4.17391h1.3723v1.39131Z"/>
        <path id="path668" d="M28.8455 5.56522h-1.3724V4.17391h1.3724v1.39131Z"/>
        <path id="path670" d="M24.7285 5.56522h-1.3723V4.17391h1.3723v1.39131Z"/>
        <path id="path672" d="M23.3562 5.56522h-1.3723V4.17391h1.3723v1.39131Z"/>
        <path id="path674" d="M20.6118 5.56522h-1.3723V4.17391h1.3723v1.39131Z"/>
        <path id="path676" d="M19.2395 5.56522h-1.3723V4.17391h1.3723v1.39131Z"/>
        <path id="path678" d="M15.1226 5.56522h-1.3724V4.17391h1.3724v1.39131Z"/>
        <path id="path680" d="M13.7502 5.56522h-1.3723V4.17391h1.3723v1.39131Z"/>
        <path id="path682" d="M12.3779 5.56522h-1.3723V4.17391h1.3723v1.39131Z"/>
        <path id="path684" d="M5.51636 5.56522H4.14404V4.17391h1.37232v1.39131Z"/>
        <path id="path686" d="M4.14405 5.56522H2.77173V4.17391h1.37232v1.39131Z"/>
        <path id="path688" d="M2.77173 5.56522H1.39941V4.17391h1.37232v1.39131Z"/>
        <path id="path690" d="M39.824 4.17389h-1.3723v-1.3913h1.3723v1.3913Z"/>
        <path id="path692" d="M38.4517 4.17389h-1.3724v-1.3913h1.3724v1.3913Z"/>
        <path id="path694" d="M37.0794 4.17389H35.707v-1.3913h1.3724v1.3913Z"/>
        <path id="path696" d="M26.1008 4.17389h-1.3723v-1.3913h1.3723v1.3913Z"/>
        <path id="path698" d="M24.7285 4.17389h-1.3723v-1.3913h1.3723v1.3913Z"/>
        <path id="path700" d="M23.3562 4.17389h-1.3723v-1.3913h1.3723v1.3913Z"/>
        <path id="path702" d="M20.6118 4.17389h-1.3723v-1.3913h1.3723v1.3913Z"/>
        <path id="path704" d="M19.2395 4.17389h-1.3723v-1.3913h1.3723v1.3913Z"/>
        <path id="path706" d="M17.8672 4.17389h-1.3723v-1.3913h1.3723v1.3913Z"/>
        <path id="path708" d="M6.88868 4.17389H5.51636v-1.3913h1.37232v1.3913Z"/>
        <path id="path710" d="M5.51636 4.17389H4.14404v-1.3913h1.37232v1.3913Z"/>
        <path id="path712" d="M4.14405 4.17389H2.77173v-1.3913h1.37232v1.3913Z"/>
        <path id="path714" d="M43.9409 2.78259h-1.3723v-1.3913h1.3723v1.3913Z"/>
        <path id="path716" d="M38.4517 2.78259h-1.3724v-1.3913h1.3724v1.3913Z"/>
        <path id="path718" d="M37.0794 2.78259H35.707v-1.3913h1.3724v1.3913Z"/>
        <path id="path720" d="M35.707 2.78259h-1.3723v-1.3913h1.3723v1.3913Z"/>
        <path id="path722" d="M26.1008 2.78259h-1.3723v-1.3913h1.3723v1.3913Z"/>
        <path id="path724" d="M24.7285 2.78259h-1.3723v-1.3913h1.3723v1.3913Z"/>
        <path id="path726" d="M19.2395 2.78259h-1.3723v-1.3913h1.3723v1.3913Z"/>
        <path id="path728" d="M17.8672 2.78259h-1.3723v-1.3913h1.3723v1.3913Z"/>
        <path id="path730" d="M8.26099 2.78259H6.88867v-1.3913h1.37232v1.3913Z"/>
        <path id="path732" d="M6.88868 2.78259H5.51636v-1.3913h1.37232v1.3913Z"/>
        <path id="path734" d="M5.51636 2.78259H4.14404v-1.3913h1.37232v1.3913Z"/>
        <path id="path736" d="M43.9409 1.3913h-1.3723V-.00000775h1.3723V1.3913Z"/>
        <path id="path738" d="M42.5686 1.3913h-1.3723V-.00000775h1.3723V1.3913Z"/>
        <path id="path740" d="M37.0794 1.3913H35.707V-.00000775h1.3724V1.3913Z"/>
        <path id="path742" d="M35.707 1.3913h-1.3723V-.00000775h1.3723V1.3913Z"/>
        <path id="path744" d="M34.3347 1.3913h-1.3723V-.00000775h1.3723V1.3913Z"/>
        <path id="path746" d="M26.1008 1.3913h-1.3723V-.00000775h1.3723V1.3913Z"/>
        <path id="path748" d="M17.8672 1.3913h-1.3723V-.00000775h1.3723V1.3913Z"/>
        <path id="path750" d="M9.63331 1.3913H8.26099V-.00000775h1.37232V1.3913Z"/>
        <path id="path752" d="M8.26099 1.3913H6.88867V-.00000775h1.37232V1.3913Z"/>
        <path id="path754" d="M6.88868 1.3913H5.51636V-.00000775h1.37232V1.3913Z"/>
        <path id="path756" d="M1.39942 1.3913H.0270996V-.00000775H1.39942V1.3913Z"/>
      </g>
    </g>
  </g>
  <defs>
    <clipPath id="clip0_0_1">
      <path fill="#fff" d="M0 0h44v39H0z"/>
    </clipPath>
  </defs>
</svg>